<svg id="圖層_1" data-name="圖層 1" xmlns="http://www.w3.org/2000/svg" viewBox="0 0 152.01 152.01"><defs><style>.cls-1{fill:#fff;}.cls-2{fill:#7b8c93;}</style></defs><circle class="cls-1" cx="76.01" cy="76.01" r="76.01"/><circle class="cls-2" cx="76.01" cy="76.01" r="71.73"/><circle class="cls-1" cx="76.01" cy="55.79" r="27.52"/><path class="cls-1" d="M371.51,468.75a29.91,29.91,0,0,0-3.07-10.05l-13.08-25.37C351,424.77,342.8,419.5,334,419.5H307.83c-8.83,0-17,5.27-21.4,13.83L273.36,458.7a30,30,0,0,0-2.9,8.82C304.15,467.71,337.82,468.68,371.51,468.75Z" transform="translate(-245.25 -336.96)"/><circle class="cls-2" cx="76.01" cy="55.79" r="24.48"/><path class="cls-2" d="M365.21,466.3a27.65,27.65,0,0,0-2.69-9.05L351.08,434.4c-3.87-7.71-11-12.46-18.73-12.46H309.47c-7.73,0-14.87,4.75-18.73,12.46L279.3,457.25a27.43,27.43,0,0,0-2.53,7.95C306.25,465.37,335.72,466.24,365.21,466.3Z" transform="translate(-245.25 -336.96)"/></svg>