<svg id="圖層_1" data-name="圖層 1" xmlns="http://www.w3.org/2000/svg" xmlns:xlink="http://www.w3.org/1999/xlink" viewBox="0 0 190 88"><defs><style>.cls-1{fill:#f3f3f3;}.cls-2,.cls-3{stroke:#000;stroke-miterlimit:10;}.cls-3{fill:#fff;}.cls-4{fill:url(#未命名漸層_9);}.cls-5{fill:url(#未命名漸層_9-2);}.cls-6{fill:url(#未命名漸層_9-3);}.cls-7{fill:url(#未命名漸層_9-4);}</style><linearGradient id="未命名漸層_9" x1="695.01" y1="653.42" x2="726.34" y2="653.42" gradientUnits="userSpaceOnUse"><stop offset="0" stop-color="#39b54a"/><stop offset="1" stop-color="#006837"/></linearGradient><linearGradient id="未命名漸層_9-2" x1="725.83" y1="653.42" x2="754.81" y2="653.42" xlink:href="#未命名漸層_9"/><linearGradient id="未命名漸層_9-3" x1="757.22" y1="653.42" x2="788.62" y2="653.42" xlink:href="#未命名漸層_9"/><linearGradient id="未命名漸層_9-4" x1="792.54" y1="653.42" x2="818" y2="653.42" xlink:href="#未命名漸層_9"/></defs><rect class="cls-1" width="190" height="88" rx="20.83"/><path class="cls-2" d="M672.05,638.57a21.94,21.94,0,0,0,6.69-.23s3.7-2.08,6.36.16l6.37.16,2.34,2.62s.38.32-.52,2.16l-1.14-1-.26,1.08-.44-1-.58,1.47-1.46-.58-2.36,1.26s-2.23-1.22-3.57-.4c0,0-2,2.11-3.28,1.43,0,0-4.56,1.71-5.84,3.24" transform="translate(-633 -606)"/><path class="cls-2" d="M673.44,650.23s-1,7-2.49,8c0,0,4,8.45,4,10.94a5.73,5.73,0,0,1-4,4.47,13.56,13.56,0,0,0-4,1.49l-.5.5s6.47.5,7,3h-.9l.4.5h-.77l-.23.5h-.49l-.5.5s-5-.5-5-1h-6a2.5,2.5,0,0,1-.5-2.48s1-3,2.49-3,1-.5,1-.5l-4.47-3-2,3-5.47,3a4.8,4.8,0,0,1,4.48,3.48H654l.07.5s-2.55,0-2.05-.5l-1.42.5s-2.06.49-2.06-.5c0,0-7.46,1.49-6.47-2.49l2.49-4s2-5.46,3-6l-2-3-.49.49v-3l-.5.5s-1.49-18.4,8.45-22.38c0,0,0-3,1-4l6.47-10.45a14.87,14.87,0,0,1,3-1.49s7-5,10.94-5c0,0-1.49-3,1.49-4,0,0,3.48,0,3.48,2,0,0,.5-4.47,3-.5,0,0,3.48-1,7,3.48,0,0,3,1,4.47.5,0,0,2,.29,0,2.39,0,0,0,2.09-1.49,2.09l-4,1a.49.49,0,0,0-.5.5l3-.5h1.49a1.76,1.76,0,0,1-1,1.49s-5,2-7,1.49c0,0-1.49,2.49-1.49,3.48l-1-1h0l-.52,1-.48-.49-.16.49-.33-.49-.5,1s-.5,7.46,0,8.95" transform="translate(-633 -606)"/><path d="M689.48,640.29l-7.37-6L680,632.57l-1.38-.83-.69-.42s-11.42-8.67-16-13.05c0,0-1-.83.34-2.57a2.56,2.56,0,0,1,2.57-1l13,12.12,2.28,2.25,1.5,1.67,1.86,2,7,6.46s.63,0,.81-.2c0,0,.09-.1.45.21a1.22,1.22,0,0,1-.24.51,9.45,9.45,0,0,1-1.43,1.65s-.77.4-.47-.43Z" transform="translate(-633 -606)"/><path class="cls-3" d="M670.38,631.85a10.9,10.9,0,0,1,4.37,3.34s4.33-.35,4.65-1.67v2.64s-1.88-1-4.51,2c0,0-2.62,0-3.12-1C671.77,637.18,671,632.5,670.38,631.85Z" transform="translate(-633 -606)"/><path class="cls-4" d="M726.34,637l-.5,2.81H714.47l-5.31,30.09h-8l5.3-30.09H695l.5-2.81Z" transform="translate(-633 -606)"/><path class="cls-5" d="M731.63,637H743.1a20.67,20.67,0,0,1,5.08.58,11,11,0,0,1,3.89,1.75,6.79,6.79,0,0,1,2.29,2.9,7.25,7.25,0,0,1,.31,4,9.34,9.34,0,0,1-1.73,4.06,11.6,11.6,0,0,1-3.18,2.9,14.32,14.32,0,0,1-4.09,1.73,17.81,17.81,0,0,1-4.45.57h-4.76l-2.53,14.37h-8.1ZM737,652.52h2.64a6,6,0,0,0,4.43-1.86,7.63,7.63,0,0,0,1.37-2,9.15,9.15,0,0,0,.75-2.36,6.8,6.8,0,0,0,0-2.62,4.6,4.6,0,0,0-.88-1.92,4,4,0,0,0-1.58-1.21,5.49,5.49,0,0,0-2.15-.41h-2.42Z" transform="translate(-633 -606)"/><path class="cls-6" d="M763,637h14.12a19.35,19.35,0,0,1,5.09.61,11.13,11.13,0,0,1,3.77,1.71,6.46,6.46,0,0,1,2.17,2.65,5.94,5.94,0,0,1,.34,3.45,10.42,10.42,0,0,1-.63,2.16,7.63,7.63,0,0,1-1.17,1.86,9.74,9.74,0,0,1-1.84,1.68,22.16,22.16,0,0,1-2.65,1.62,9.22,9.22,0,0,1,2.45,1.23,7.25,7.25,0,0,1,1.79,1.79,6.63,6.63,0,0,1,1,2.28,7,7,0,0,1,0,2.66,8.9,8.9,0,0,1-1.53,3.62,11.54,11.54,0,0,1-3,2.91,16,16,0,0,1-4.28,1.95,18.17,18.17,0,0,1-5.21.72h-16.2Zm5.56,14.26h5.31a6.7,6.7,0,0,0,2.37-.4,5.75,5.75,0,0,0,1.89-1.11,6.15,6.15,0,0,0,1.36-1.71,6.91,6.91,0,0,0,.74-2.16,5.43,5.43,0,0,0,0-2.35,3.66,3.66,0,0,0-1.09-1.84,5.44,5.44,0,0,0-2.19-1.18,11.32,11.32,0,0,0-3.37-.43h-3Zm-2.69,15.26h4.47a13,13,0,0,0,3.47-.42,8.34,8.34,0,0,0,2.57-1.17,5.8,5.8,0,0,0,1.69-1.77,6.46,6.46,0,0,0,.85-2.24,7.63,7.63,0,0,0,0-2.56,4.11,4.11,0,0,0-1-2.05,5.18,5.18,0,0,0-2.21-1.36,11.51,11.51,0,0,0-3.61-.48H768Z" transform="translate(-633 -606)"/><path class="cls-7" d="M798.34,637h8.08l-5.21,29.52H818l-.59,3.38H792.54Z" transform="translate(-633 -606)"/></svg>