<svg id="圖層_1" data-name="圖層 1" xmlns="http://www.w3.org/2000/svg" viewBox="0 0 173.8 79"><defs><style>.cls-1{fill:#e6e6e6;}.cls-2{fill:none;stroke-width:0.25px;}.cls-2,.cls-4{stroke:#000;stroke-miterlimit:10;}.cls-3{fill:#7b7976;}.cls-4{stroke-width:3px;}.cls-5{fill:#fff;}.cls-6{fill:#b99365;}.cls-7{fill:#006837;}</style></defs><rect class="cls-1" width="173.8" height="79" rx="12.77"/><path d="M45,84.53a10.62,10.62,0,0,1-10.48-10s-.63-13.33,3-21c0,0,5.47-20,7.65-21.5,0,0-8-4.37-6.56-8.38,0,0,7.29-11.66,13.12-3.28a5.28,5.28,0,0,1,1.46,3.28s10.57-6.2,21.5,0c0,0,3.28-8,7.29-6.92,0,0,8,1.45,6.92,9.47a9.81,9.81,0,0,1-6.19,5.1s8,17.86,8,23c0,0,4.23,26.6,2.11,30.24Z" transform="translate(-25 -12)"/><path class="cls-2" d="M45,84.53a10.62,10.62,0,0,1-10.48-10s-.63-13.33,3-21c0,0,5.47-20,7.65-21.5,0,0-8-4.37-6.56-8.38,0,0,7.29-11.66,13.12-3.28a5.28,5.28,0,0,1,1.46,3.28s10.57-6.2,21.5,0c0,0,3.28-8,7.29-6.92,0,0,8,1.45,6.92,9.47a9.81,9.81,0,0,1-6.19,5.1s8,17.86,8,23c0,0,4.23,26.6,2.11,30.24Z" transform="translate(-25 -12)"/><ellipse class="cls-3" cx="39.34" cy="33.72" rx="7.47" ry="10.02"/><path d="M66.88,38.71c1.19.18,2.38.63,2.38,1.73,0,0,0,3.28-1.45,4,0,0-.73,1.44-3.28,1.26,0,0-3.28-.17-4.38-2.72,0,0-1.71-2.59,1.33-4.39C61.48,38.6,65.7,38.53,66.88,38.71Z" transform="translate(-25 -12)"/><path class="cls-4" d="M64.49,45.36a39.5,39.5,0,0,1,.4,8.56" transform="translate(-25 -12)"/><circle class="cls-3" cx="30.42" cy="23.7" r="1.46"/><circle cx="30.6" cy="23.89" r="0.91"/><circle class="cls-3" cx="47.54" cy="23.34" r="1.46"/><circle cx="47.72" cy="23.52" r="0.91"/><polygon class="cls-5" points="39.71 62.07 28.23 57.43 28.42 49.94 50.99 49.94 51.19 57.43 39.71 62.07"/><path class="cls-6" d="M104.2,69.28l22.85-1.23,6.47-.5,3.79-.74,1.9-.38s34.24-3.15,49.5-2.89c0,0,3-.08,3.57,5.12,0,0,.49,4.22-2.9,5.94l-42.67-.37-7.69-.3-5.35-.52-6.5-.48-22.88-.07s-1.12,1-1.1,1.65c0,0,0,.33-1.14.36a2.92,2.92,0,0,1-.41-1.29,22.28,22.28,0,0,1-.14-5.24s.72-1.94,1.53,0Z" transform="translate(-25 -12)"/><ellipse cx="90.35" cy="73.05" rx="11.73" ry="6.46" transform="translate(-34.22 1.18) rotate(-7.94)"/><path class="cls-7" d="M126,37.69l-.33,1.87h-7.58l-3.53,20h-5.36l3.53-20h-7.59l.33-1.87Z" transform="translate(-25 -12)"/><path class="cls-7" d="M129.51,37.69h7.64a13.81,13.81,0,0,1,3.38.39,7.29,7.29,0,0,1,2.58,1.16,4.55,4.55,0,0,1,1.53,1.93,4.86,4.86,0,0,1,.2,2.69,6.18,6.18,0,0,1-1.14,2.7,7.81,7.81,0,0,1-2.12,1.93,9.54,9.54,0,0,1-2.72,1.16,12.1,12.1,0,0,1-3,.38h-3.16L131,59.59h-5.39ZM133.08,48h1.76a4,4,0,0,0,1.65-.33,4.16,4.16,0,0,0,1.29-.9,4.86,4.86,0,0,0,.91-1.32,6,6,0,0,0,.51-1.57,4.61,4.61,0,0,0,0-1.74,3,3,0,0,0-.58-1.28,2.61,2.61,0,0,0-1.05-.8,3.48,3.48,0,0,0-1.43-.28h-1.61Z" transform="translate(-25 -12)"/><path class="cls-7" d="M150.4,37.69h9.4a13.48,13.48,0,0,1,3.39.4,7.47,7.47,0,0,1,2.51,1.14A4.38,4.38,0,0,1,167.15,41a4,4,0,0,1,.22,2.29,6.35,6.35,0,0,1-.42,1.44,4.78,4.78,0,0,1-.78,1.24A6.68,6.68,0,0,1,165,47.09a14.94,14.94,0,0,1-1.77,1.08,6.45,6.45,0,0,1,1.64.82A4.6,4.6,0,0,1,166,50.18a4.32,4.32,0,0,1,.66,1.52,4.56,4.56,0,0,1,0,1.77,5.92,5.92,0,0,1-1,2.4,7.49,7.49,0,0,1-2,1.94,10.43,10.43,0,0,1-2.84,1.3,12.13,12.13,0,0,1-3.47.48H146.54Zm3.71,9.5h3.53a4.48,4.48,0,0,0,1.58-.27,4.4,4.4,0,0,0,1.26-.74,4.2,4.2,0,0,0,.9-1.14,4.92,4.92,0,0,0,.5-1.44,3.58,3.58,0,0,0,0-1.57,2.43,2.43,0,0,0-.72-1.21,3.63,3.63,0,0,0-1.46-.8,8,8,0,0,0-2.24-.28h-2Zm-1.79,10.15h3a8.5,8.5,0,0,0,2.31-.28,5.86,5.86,0,0,0,1.71-.77,4.08,4.08,0,0,0,1.13-1.18,4.38,4.38,0,0,0,.56-1.5,4.87,4.87,0,0,0,0-1.7,2.77,2.77,0,0,0-.65-1.37,3.54,3.54,0,0,0-1.47-.9,7.81,7.81,0,0,0-2.41-.32h-2.76Z" transform="translate(-25 -12)"/><path class="cls-7" d="M173.91,37.69h5.38l-3.46,19.65H187l-.4,2.25H170.05Z" transform="translate(-25 -12)"/></svg>